<svg width="182" height="182" viewBox="0 0 182 182" fill="none" xmlns="http://www.w3.org/2000/svg">
<path d="M59.6685 169.497H53.6179C50.2333 172.825 46.5273 175.605 42.481 177.855H59.6685C60.7084 177.855 61.5593 177.004 61.5593 175.964V171.388C61.5593 170.348 60.7084 169.497 59.6685 169.497Z" fill="#1C274C"/>
<path d="M95.1214 169.497H72.0534C71.0135 169.497 70.1626 170.348 70.1626 171.388V175.964C70.1626 177.004 71.0135 177.855 72.0534 177.855H95.1214C96.1613 177.855 97.0122 177.004 97.0122 175.964V171.388C97.0122 170.348 96.1613 169.497 95.1214 169.497Z" fill="#1C274C"/>
<path d="M130.574 169.497H107.506C106.466 169.497 105.615 170.348 105.615 171.388V175.964C105.615 177.004 106.466 177.855 107.506 177.855H130.574C131.614 177.855 132.465 177.004 132.465 175.964V171.388C132.465 170.348 131.614 169.497 130.574 169.497Z" fill="#1C274C"/>
<path d="M166.027 169.497H142.959C141.919 169.497 141.068 170.348 141.068 171.388V175.964C141.068 177.004 141.919 177.855 142.959 177.855H166.027C167.067 177.855 167.918 177.004 167.918 175.964V171.388C167.918 170.348 167.067 169.497 166.027 169.497Z" fill="#1C274C"/>
<path d="M59.782 149.814C72.2805 125.536 76.1567 119.126 81.1673 115.496L70.0682 104.397L0.278202 174.187C-0.232318 174.697 -0.00542031 175.567 0.675274 175.756C3.24678 176.494 8.91924 177.855 15.9909 177.855C21.6255 177.855 28.1488 176.985 34.71 174.281C37.6029 173.09 40.5148 171.521 43.351 169.517C49.3636 165.224 55.0739 158.947 59.782 149.814Z" fill="#1C274C"/>
<path d="M170.433 7.11409C168.447 5.12873 165.857 4.14551 163.267 4.14551C160.676 4.14551 158.086 5.12873 156.119 7.11409L71.3537 91.8794C70.1438 93.0895 70.1438 95.056 71.3537 96.2661L76.5346 101.447L85.1945 92.7868L109.945 68.036L129.988 47.9934C130.12 47.861 130.234 47.7476 130.366 47.653C130.385 47.6341 130.423 47.6152 130.442 47.5963C130.498 47.5396 130.574 47.5018 130.65 47.445C132.711 45.9702 135.566 46.1593 137.419 47.9934L138.156 48.7308C139.782 50.3569 140.123 52.8149 139.158 54.7814C138.912 55.273 138.572 55.7457 138.156 56.1617L111.439 82.86L92.8899 101.409L84.7027 109.596L89.8834 114.777C90.4884 115.382 91.2826 115.685 92.0769 115.685C92.8709 115.685 93.665 115.382 94.2702 114.777L179.036 30.0117C182.987 26.0599 182.987 19.65 179.036 15.6982L170.433 7.11409Z" fill="#1C274C"/>
</svg>
