<svg width="182" height="182" viewBox="0 0 182 182" fill="none" xmlns="http://www.w3.org/2000/svg">
<path fill-rule="evenodd" clip-rule="evenodd" d="M85.9169 174.294C67.1908 174.294 58.6595 163.118 58.6595 152.724C58.6595 147.648 59.3989 143.993 60.1241 140.467C61.3611 134.396 62.527 128.651 59.2851 117.859C58.0623 113.807 55.1191 110.096 51.6923 105.788C48.2372 101.451 44.3412 96.517 41.398 90.2039C31.8856 69.7289 32.3406 49.524 42.6776 33.3289C52.6023 17.7878 70.4611 7.73511 88.2061 7.73511C105.07 7.73511 122.146 15.0151 133.919 27.2006C143.048 36.656 147.854 47.704 147.484 58.3254C146.418 88.4545 134.517 107.977 124.948 123.674L124.947 123.675L124.917 123.725C120.11 131.609 115.957 138.419 114.184 145.06C107.487 170.241 100.363 174.294 85.9169 174.294ZM68.9112 65.8329C68.57 65.3637 68.0012 66.0747 68.2998 66.5723C70.5606 70.4682 75.3808 75.9567 80.4995 77.2079C88.0212 79.0422 96.0833 81.8006 100.605 88.7536C109.833 102.944 103.918 119.295 88.5758 123.774C86.0164 124.514 86.4572 125.424 89.0166 124.67C104.543 120.149 113.814 106.328 107.231 90.6447C103.039 80.6438 95.5544 78.6931 87.8024 76.6726C81.039 74.9099 74.0722 73.0941 68.9112 65.8329ZM52.2469 49.8937C52.2469 49.8937 52.4839 49.5839 52.9425 49.0412C52.4857 49.6534 52.2469 49.8937 52.2469 49.8937ZM101.941 31.5089C76.0745 23.7247 56.774 44.508 52.9425 49.0412C53.9043 47.7523 55.8323 44.8151 58.5316 39.0021C66.4941 21.9254 120.596 6.28479 134.389 57.6856C140.076 78.8431 116.956 113.309 116.956 113.309L112.293 119.907C112.293 119.907 130.948 78.5871 128.587 62.591C126.497 48.486 115.52 35.5896 101.941 31.5089Z" fill="#1C274C"/>
<path fill-rule="evenodd" clip-rule="evenodd" d="M88.1845 9.86768C104.479 9.86768 120.987 16.906 132.362 28.6791C140.95 37.58 145.685 48.3578 145.33 58.2399C144.292 87.8149 132.547 107.081 123.106 122.551C118.2 130.599 113.963 137.552 112.1 144.491C106.569 165.236 102.005 172.132 85.8953 172.132C68.6338 172.132 60.7708 162.065 60.7708 152.695C60.7708 147.858 61.4883 144.329 62.1816 140.92L62.1927 140.865C63.4866 134.523 64.7094 128.523 61.2969 117.219C59.9603 112.783 56.8891 108.915 53.3344 104.451L53.3132 104.424C49.9485 100.179 46.1338 95.3665 43.3102 89.2936C34.1248 69.5011 34.523 50.0214 44.4619 34.4661C53.9884 19.5222 71.1647 9.86768 88.1845 9.86768ZM88.1845 5.60205C54.5856 5.60205 16.3372 41.3196 39.4427 91.0852C42.4814 97.6312 46.5005 102.692 49.9951 107.092C53.2865 111.236 56.1127 114.794 57.2161 118.456C60.3149 128.726 59.2408 133.993 58.0131 140.013C57.2861 143.578 56.5052 147.407 56.5052 152.695C56.5052 165.023 66.9275 176.398 85.8953 176.398C104.863 176.398 110.536 166.914 116.224 145.586C117.917 139.236 121.994 132.55 126.743 124.763C136.276 109.132 148.513 89.0655 149.595 58.3821C150.505 32.4471 121.769 5.60205 88.1845 5.60205Z" fill="#1C274C"/>
</svg>
