<svg width="182" height="182" viewBox="0 0 182 182" fill="none" xmlns="http://www.w3.org/2000/svg">
<g clip-path="url(#clip0_1090_2642)">
<path d="M182 79.7415C182 71.7088 182 59.2386 173.802 59.2386C169.888 59.2386 156.093 54.3007 140.238 57.714C122.858 61.4516 103.015 65.3884 91.0057 65.3884C78.9907 65.3884 59.1477 61.463 41.7794 57.7083C25.9244 54.2893 12.1231 59.233 8.20343 59.233C0 59.2273 0 71.7031 0 79.7358C0 80.4299 1.52463 81.0557 4.06189 81.6302C3.60678 83.7636 3.48731 85.988 3.8514 88.2294L6.91204 107.56C8.48787 117.448 17.9144 125.492 27.9212 125.492H55.0403C65.0756 125.492 74.3542 117.402 75.6911 107.583L79.4629 88.2465C79.9123 84.9127 79.406 81.7782 78.1032 79.0987C82.3813 78.2396 86.6935 77.557 91.0114 77.557C95.335 77.557 99.6472 78.2283 103.931 79.0987C102.622 81.7895 102.116 84.9469 102.588 88.3659L106.309 107.475C107.674 117.414 116.953 125.503 126.982 125.503H154.107C164.114 125.503 173.535 117.459 175.111 107.566L178.171 88.2408C178.53 85.9936 178.422 83.7693 177.967 81.6416C180.481 81.0557 182 80.4299 182 79.7415ZM75.4124 87.5695L71.6406 106.906C70.5483 114.893 63.0958 121.384 55.0346 121.384H27.9155C19.8373 121.384 12.2255 114.893 10.9626 106.918L7.90191 87.5865C7.30458 83.8432 8.22618 80.1454 10.4733 77.1986C12.7318 74.2403 16.0541 72.3857 19.4561 71.9932L63.5509 75.4919C67.4763 75.0766 70.884 76.277 73.0742 78.7858C75.0369 81.0557 75.8675 84.213 75.4124 87.5695ZM174.104 87.5865L171.037 106.912C169.78 114.888 162.163 121.39 154.09 121.39H126.965C118.898 121.39 111.452 114.888 110.342 106.792L106.616 87.6833C106.138 84.2073 106.969 81.05 108.931 78.7915C110.832 76.6126 113.665 75.4122 116.919 75.4122C117.419 75.4122 117.92 75.4407 118.819 75.5033L162.163 71.9932C165.934 72.3914 169.263 74.246 171.521 77.2043C173.785 80.1568 174.707 83.8432 174.104 87.5865Z" fill="#1C274C"/>
</g>
<defs>
<clipPath id="clip0_1090_2642">
<rect width="182" height="182" fill="white"/>
</clipPath>
</defs>
</svg>
