<svg width="182" height="182" viewBox="0 0 182 182" fill="none" xmlns="http://www.w3.org/2000/svg">
<path d="M91.0002 106.167V75.8333M106.167 90.9999H75.8335" stroke="#1C274C" stroke-width="10" stroke-linecap="round" stroke-linejoin="round"/>
<path d="M144.083 37.9167C146.095 37.9167 148.024 38.7156 149.446 40.1378C150.868 41.5599 151.667 43.4888 151.667 45.5V72.345C151.671 90.8265 146.189 108.893 135.915 124.256C125.642 139.619 111.039 151.587 93.9577 158.643C93.022 159.04 92.0163 159.244 91.0002 159.244C89.9841 159.244 88.9783 159.04 88.0427 158.643C70.9613 151.587 56.3587 139.619 46.0853 124.256C35.8118 108.893 30.3297 90.8265 30.3335 72.345V45.5C30.3335 43.4888 31.1325 41.5599 32.5546 40.1378C33.9768 38.7156 35.9056 37.9167 37.9168 37.9167C56.7182 38.1944 75.1835 32.9186 91.0002 22.75C106.817 32.9186 125.282 38.1944 144.083 37.9167Z" stroke="#1C274C" stroke-width="10" stroke-linecap="round" stroke-linejoin="round"/>
</svg>
