<!-- icon666.com - MILLIONS vector ICONS FREE --><svg version="1.1" id="Capa_1" xmlns="http://www.w3.org/2000/svg" xmlns:xlink="http://www.w3.org/1999/xlink" x="0px" y="0px" viewBox="0 0 512 512" style="enable-background:new 0 0 512 512;" xml:space="preserve"><g><g><path d="M256,0c-38.598,0-70,31.402-70,70v1h140v-1C326,31.402,294.599,0,256,0z"></path></g></g><g><g><path d="M50,123c-27.57,0-50,22.43-50,50s22.43,50,50,50h11V123H50z"></path></g></g><g><g><path d="M462,123h-21v100h21c27.57,0,50-22.43,50-50S489.57,123,462,123z"></path></g></g><g><g><path d="M141,451v11c0,27.57,22.43,50,50,50s50-22.43,50-50v-11H141z"></path></g></g><g><g><path d="M271,451v11c0,27.57,22.43,50,50,50s50-22.43,50-50v-11H271z"></path></g></g><g><g><polygon points="248,101 248,120.15 256,116.555 264,120.15 264,101 "></polygon></g></g><g><g><polygon points="294,101 294,133.633 348.216,158 421,158 421,101 "></polygon></g></g><g><g><rect x="206" y="351" width="100" height="70"></rect></g></g><g><g><path d="M199,202c23.159,0,42-18.841,42-42v-3.813L170.216,188H91v233h85V321h65v-52.574C229.169,276.955,214.667,282,199,282h-22 v-30h22c20.016,0,36.796-14.079,40.984-32.851C228.343,227.24,214.22,232,199,232h-22v-30H199z"></path></g></g><g><g><path d="M341.784,188L271,156.187V160c0,23.159,18.841,42,42,42h22v30h-22c-15.22,0-29.343-4.76-40.984-12.851 C276.204,237.921,292.983,252,313,252h22v30h-22c-15.667,0-30.169-5.045-42-13.574V321h65v100h85V188H341.784z"></path></g></g><g><g><polygon points="91,101 91,158 163.784,158 218,133.633 218,101 "></polygon></g></g></svg>