<svg width="182" height="182" viewBox="0 0 182 182" fill="none" xmlns="http://www.w3.org/2000/svg">
<path d="M129.177 0.709049C110.054 -2.16243 99.0235 4.55273 90.9977 5.50788C82.9773 4.55238 71.9467 -2.16243 52.8236 0.709049C30.9011 4.00815 16.4659 24.9975 19.743 60.1779C23.1366 96.6245 44.2646 123.479 46.8087 157.043C49.2749 189.552 65.9375 184.859 70.1751 173.35C74.4187 161.842 81.6667 130.194 90.9977 130.194C100.329 130.194 107.582 161.842 111.82 173.35C116.064 184.859 132.727 189.552 135.192 157.043C137.736 123.479 158.865 96.6245 162.258 60.1779C165.53 24.9975 151.1 4.00815 129.177 0.709049Z" fill="#1C274C"/>
</svg>
